<?xml version="1.0" standalone="no"?>
<!DOCTYPE svg PUBLIC "-//W3C//DTD SVG 1.1//EN" "http://www.w3.org/Graphics/SVG/1.1/DTD/svg11.dtd" >
<svg xmlns="http://www.w3.org/2000/svg" xmlns:xlink="http://www.w3.org/1999/xlink" version="1.1">
<metadata>
Created by FontForge 20170731 at Fri Oct  5 22:37:34 2018
 By Aleksey,,,
Copyright (c) 2018 by Vasily Draigo aka Daymarius. All rights reserved.
</metadata>
<defs>
<font id="Retron2000" horiz-adv-x="2730" >
  <font-face 
    font-family="Retron2000"
    font-weight="400"
    font-stretch="normal"
    units-per-em="4096"
    panose-1="0 0 4 0 0 0 0 0 0 0"
    ascent="3276"
    descent="-820"
    x-height="2275"
    cap-height="3185"
    bbox="-151 -910 4399 4551"
    underline-thickness="204"
    underline-position="103"
    unicode-range="U+0020-2122"
  />
<missing-glyph horiz-adv-x="2602" 
d="M2381 50l-1156 1523l-1156 -1523h2312zM50 69l1156 1523l-1156 1524v-3047v0zM2400 69v3047l-1156 -1524l1156 -1523v0zM1225 1612l1156 1523h-2312l1156 -1523v0zM0 0v3185h2450v-3185h-2450z" />
    <glyph glyph-name=".notdef" horiz-adv-x="2602" 
d="M2381 50l-1156 1523l-1156 -1523h2312zM50 69l1156 1523l-1156 1524v-3047v0zM2400 69v3047l-1156 -1524l1156 -1523v0zM1225 1612l1156 1523h-2312l1156 -1523v0zM0 0v3185h2450v-3185h-2450z" />
    <glyph glyph-name="glyph1" horiz-adv-x="151" 
 />
    <glyph glyph-name="glyph2" horiz-adv-x="151" 
 />
    <glyph glyph-name="space" unicode=" " horiz-adv-x="1289" 
 />
    <glyph glyph-name="exclam" unicode="!" horiz-adv-x="910" 
d="M303 0v455h455v-455h-455zM303 910v2275h455v-2275h-455z" />
    <glyph glyph-name="quotedbl" unicode="&#x22;" horiz-adv-x="1820" 
d="M303 2275v910h455v-910h-455zM1213 2275v910h455v-910h-455z" />
    <glyph glyph-name="numbersign" unicode="#" 
d="M1668 1365v455h-455v-455h455zM758 0v910h-455v455h455v455h-455v455h455v910h455v-910h455v910h455v-910h455v-455h-455v-455h455v-455h-455v-910h-455v910h-455v-910h-455z" />
    <glyph glyph-name="dollar" unicode="$" 
d="M1820 455v151h152v152h151v303h-151v152h-152v152h-152v-910h152zM1213 1820v910h-152v-152h-151v-151h-152v-304h152v-151h151v-152h152zM1213 -455v455h-455v151h-152v152h-151v152h-152v455h455v-152h152v-152h151v-151h152v910h-455v152h-152v151h-151v152h-152v910
h152v152h151v152h152v151h455v455h455v-455h455v-151h152v-152h152v-152h151v-455h-455v152h-151v151h-152v152h-152v-910h455v-152h152v-151h152v-152h151v-910h-151v-152h-152v-152h-152v-151h-455v-455h-455z" />
    <glyph glyph-name="percent" unicode="%" 
d="M2275 303v303h-303v-303h303zM1820 0v151h-152v607h152v152h607v-152h151v-607h-151v-151h-607zM910 2578v304h-304v-304h304zM455 2275v152h-152v607h152v151h606v-151h152v-607h-152v-152h-606zM303 0v910h152v151h151v152h152v152h152v152h151v151h152v152h152v152
h152v151h151v152h152v152h152v151h151v607h455v-910h-151v-152h-152v-151h-152v-152h-151v-152h-152v-151h-152v-152h-151v-152h-152v-152h-152v-151h-152v-152h-151v-152h-152v-606h-455z" />
    <glyph glyph-name="ampersand" unicode="&#x26;" horiz-adv-x="3034" 
d="M758 0v151h-152v152h-151v152h-152v910h152v152h151v151h-151v152h-152v910h152v152h151v152h152v151h1365v-151h152v-152h152v-152h151v-455h-455v152h-151v151h-152v152h-759v-152h-151v-151h-152v-304h152v-151h151v-152h607v-455h-607v-152h-151v-152h-152v-303h152
v-152h151v-151h607v151h152v152h152v607h910v-455h-455v-455h-152v-152h-152v-152h-151v-151h-1214z" />
    <glyph glyph-name="quotesingle" unicode="'" horiz-adv-x="910" 
d="M303 2275v910h455v-910h-455z" />
    <glyph glyph-name="parenleft" unicode="(" horiz-adv-x="1820" 
d="M1213 0v151h-152v152h-151v152h-152v151h-152v152h-151v152h-152v1365h152v152h151v151h152v152h152v152h151v152h152v151h455v-455h-151v-152h-152v-151h-152v-152h-152v-152h-151v-151h-152v-759h152v-152h151v-151h152v-152h152v-152h152v-151h151v-455h-455z" />
    <glyph glyph-name="parenright" unicode=")" horiz-adv-x="1820" 
d="M303 0v455h152v151h151v152h152v152h152v151h151v152h152v759h-152v151h-151v152h-152v152h-152v151h-151v152h-152v455h455v-151h152v-152h151v-152h152v-152h152v-151h152v-152h151v-1365h-151v-152h-152v-152h-152v-151h-152v-152h-151v-152h-152v-151h-455z" />
    <glyph glyph-name="asterisk" unicode="*" horiz-adv-x="2275" 
d="M303 1820v455h152v152h151v151h-151v152h-152v455h455v-151h152v-152h151v-152h304v152h152v152h151v151h455v-455h-151v-152h-152v-151h152v-152h151v-455h-455v152h-151v151h-152v152h-304v-152h-151v-151h-152v-152h-455z" />
    <glyph glyph-name="plus" unicode="+" 
d="M1213 455v910h-910v455h910v910h455v-910h910v-455h-910v-910h-455z" />
    <glyph glyph-name="comma" unicode="," horiz-adv-x="910" 
d="M-151 -910v455h151v152h151v152h152v606h455v-910h-152v-151h-151v-152h-152v-152h-454z" />
    <glyph glyph-name="hyphen" unicode="-" horiz-adv-x="2275" 
d="M303 1365v455h1820v-455h-1820z" />
    <glyph glyph-name="period" unicode="." horiz-adv-x="910" 
d="M303 0v455h455v-455h-455z" />
    <glyph glyph-name="slash" unicode="/" 
d="M303 0v910h152v151h151v152h152v152h152v152h151v151h152v152h152v152h152v151h151v152h152v152h152v151h151v607h455v-910h-151v-152h-152v-151h-152v-152h-151v-152h-152v-151h-152v-152h-151v-152h-152v-152h-152v-151h-152v-152h-151v-152h-152v-606h-455z" />
    <glyph glyph-name="zero" unicode="0" 
d="M1820 455v151h152v152h151v1062h-151v-152h-152v-151h-152v-152h-151v-152h-152v-152h-152v-151h-152v-152h-151v-152h151v-151h759zM910 1365v152h151v151h152v152h152v152h152v151h151v152h152v152h152v151h-152v152h-759v-152h-151v-151h-152v-1062h152zM758 0v151
h-152v152h-151v152h-152v2275h152v152h151v152h152v151h1365v-151h152v-152h152v-152h151v-2275h-151v-152h-152v-152h-152v-151h-1365z" />
    <glyph glyph-name="one" unicode="1" 
d="M303 0v455h910v2275h-152v-152h-151v-151h-152v-152h-455v455h152v152h151v152h152v151h910v-2730h910v-455h-2275z" />
    <glyph glyph-name="two" unicode="2" 
d="M303 0v1365h152v152h151v151h152v152h1062v152h152v151h151v304h-151v151h-152v152h-759v-152h-151v-151h-152v-152h-455v455h152v152h151v152h152v151h1365v-151h152v-152h152v-152h151v-910h-151v-152h-152v-151h-152v-152h-1062v-152h-151v-152h-152v-606h1365v455
h455v-910h-2275z" />
    <glyph glyph-name="three" unicode="3" 
d="M758 0v151h-152v152h-151v152h-152v455h455v-152h152v-152h151v-151h759v151h152v152h151v303h-151v152h-152v152h-607v455h607v152h152v151h151v304h-151v151h-152v152h-759v-152h-151v-151h-152v-152h-455v455h152v152h151v152h152v151h1365v-151h152v-152h152v-152
h151v-910h-151v-152h-152v-151h152v-152h151v-910h-151v-152h-152v-152h-152v-151h-1365z" />
    <glyph glyph-name="four" unicode="4" 
d="M1668 0v910h-1365v910h152v152h151v151h152v152h152v152h151v151h152v152h152v152h152v152h151v151h455v-455h-151v-152h-152v-151h-152v-152h-151v-152h-152v-151h-152v-152h-152v-152h-151v-303h758v455h455v-455h455v-455h-455v-910h-455z" />
    <glyph glyph-name="five" unicode="5" 
d="M758 0v151h-152v152h-151v152h-152v455h455v-152h152v-152h151v-151h759v151h152v152h151v303h-151v152h-152v152h-1517v1820h2275v-455h-1820v-910h1365v-152h152v-151h152v-152h151v-910h-151v-152h-152v-152h-152v-151h-1365z" />
    <glyph glyph-name="six" unicode="6" 
d="M1820 455v151h152v152h151v303h-151v152h-152v152h-1062v-607h152v-152h151v-151h759zM758 0v151h-152v152h-151v152h-152v2275h152v152h151v152h152v151h1365v-151h152v-152h152v-152h151v-455h-455v152h-151v151h-152v152h-759v-152h-151v-151h-152v-607h1365v-152h152
v-151h152v-152h151v-910h-151v-152h-152v-152h-152v-151h-1365z" />
    <glyph glyph-name="seven" unicode="7" 
d="M1213 0v1365h152v152h152v151h151v152h152v152h152v151h151v607h-1365v-455h-455v910h2275v-1365h-151v-152h-152v-151h-152v-152h-151v-152h-152v-152h-152v-1061h-455z" />
    <glyph glyph-name="eight" unicode="8" 
d="M1820 455v151h152v152h151v303h-151v152h-152v152h-759v-152h-151v-152h-152v-303h152v-152h151v-151h759zM1820 1820v152h152v151h151v304h-151v151h-152v152h-759v-152h-151v-151h-152v-304h152v-151h151v-152h759zM758 0v151h-152v152h-151v152h-152v910h152v152h151
v151h-151v152h-152v910h152v152h151v152h152v151h1365v-151h152v-152h152v-152h151v-910h-151v-152h-152v-151h152v-152h151v-910h-151v-152h-152v-152h-152v-151h-1365z" />
    <glyph glyph-name="nine" unicode="9" 
d="M2123 1820v607h-151v151h-152v152h-759v-152h-151v-151h-152v-304h152v-151h151v-152h1062zM758 0v151h-152v152h-151v152h-152v455h455v-152h152v-152h151v-151h759v151h152v152h151v607h-1365v152h-152v151h-151v152h-152v910h152v152h151v152h152v151h1365v-151h152
v-152h152v-152h151v-2275h-151v-152h-152v-152h-152v-151h-1365z" />
    <glyph glyph-name="colon" unicode=":" horiz-adv-x="910" 
d="M303 0v455h455v-455h-455zM303 1820v455h455v-455h-455z" />
    <glyph glyph-name="semicolon" unicode=";" horiz-adv-x="910" 
d="M-151 -910v455h151v152h151v152h152v606h455v-910h-152v-151h-151v-152h-152v-152h-454zM303 1820v455h455v-455h-455z" />
    <glyph glyph-name="less" unicode="&#x3c;" horiz-adv-x="2275" 
d="M1668 0v151h-151v152h-152v152h-152v151h-152v152h-151v152h-152v151h-152v152h-151v152h-152v455h152v152h151v151h152v152h152v152h151v151h152v152h152v152h152v152h151v151h455v-455h-151v-152h-152v-151h-152v-152h-151v-152h-152v-151h-152v-152h-152v-152h-151
v-151h151v-152h152v-152h152v-152h152v-151h151v-152h152v-152h152v-151h151v-455h-455z" />
    <glyph glyph-name="equal" unicode="=" 
d="M303 910v455h2275v-455h-2275zM303 1820v455h2275v-455h-2275z" />
    <glyph glyph-name="greater" unicode="&#x3e;" horiz-adv-x="2275" 
d="M303 0v455h152v151h151v152h152v152h152v151h151v152h152v152h152v152h152v151h-152v152h-152v152h-152v151h-151v152h-152v152h-152v151h-151v152h-152v455h455v-151h152v-152h151v-152h152v-152h152v-151h152v-152h151v-152h152v-151h152v-152h151v-455h-151v-152h-152
v-152h-152v-151h-151v-152h-152v-152h-152v-151h-152v-152h-151v-152h-152v-151h-455z" />
    <glyph glyph-name="question" unicode="?" 
d="M1213 0v455h455v-455h-455zM1213 910v455h152v152h152v151h151v152h152v152h152v151h151v304h-151v151h-152v152h-759v-152h-151v-151h-152v-152h-455v455h152v152h151v152h152v151h1365v-151h152v-152h152v-152h151v-910h-151v-152h-152v-151h-152v-152h-151v-152h-152
v-152h-152v-151h-455z" />
    <glyph glyph-name="at" unicode="@" horiz-adv-x="3185" 
d="M2123 1365v455h-455v-455h455zM758 0v151h-152v152h-151v152h-152v2275h152v152h151v152h152v151h1820v-455h-1820v-2275h1820v455h-1213v151h-152v1062h152v152h1062v-152h151v-455h152v-151h152v-152h152v-910h-152v-152h-152v-152h-152v-151h-1820z" />
    <glyph glyph-name="A" unicode="A" 
d="M2123 1820v607h-151v151h-152v152h-759v-152h-151v-151h-152v-607h1365zM303 0v2730h152v152h151v152h152v151h1365v-151h152v-152h152v-152h151v-2730h-455v1365h-1365v-1365h-455z" />
    <glyph glyph-name="B" unicode="B" 
d="M1820 455v151h152v152h151v303h-151v152h-152v152h-1062v-910h1062zM1820 1820v152h152v151h151v304h-151v151h-152v152h-1062v-910h1062zM303 0v3185h1820v-151h152v-152h152v-152h151v-910h-151v-152h-152v-151h152v-152h151v-910h-151v-152h-152v-152h-152v-151h-1820
z" />
    <glyph glyph-name="C" unicode="C" 
d="M758 0v151h-152v152h-151v152h-152v2275h152v152h151v152h152v151h1365v-151h152v-152h152v-152h151v-455h-455v152h-151v151h-152v152h-759v-152h-151v-151h-152v-1669h152v-152h151v-151h759v151h152v152h151v152h455v-455h-151v-152h-152v-152h-152v-151h-1365z" />
    <glyph glyph-name="D" unicode="D" 
d="M1820 455v151h152v152h151v1669h-151v151h-152v152h-1062v-2275h1062zM303 0v3185h1820v-151h152v-152h152v-152h151v-2275h-151v-152h-152v-152h-152v-151h-1820z" />
    <glyph glyph-name="E" unicode="E" 
d="M758 0v151h-152v152h-151v152h-152v2275h152v152h151v152h152v151h1820v-455h-1517v-152h-151v-151h-152v-607h1365v-455h-1365v-607h152v-152h151v-151h1517v-455h-1820z" />
    <glyph glyph-name="F" unicode="F" 
d="M303 0v2730h152v152h151v152h152v151h1820v-455h-1517v-152h-151v-151h-152v-607h1365v-455h-1365v-1365h-455z" />
    <glyph glyph-name="G" unicode="G" 
d="M758 0v151h-152v152h-151v152h-152v2275h152v152h151v152h152v151h1365v-151h152v-152h152v-152h151v-455h-455v152h-151v151h-152v152h-759v-152h-151v-151h-152v-1669h152v-152h151v-151h759v151h152v152h151v607h-455v455h910v-1365h-151v-152h-152v-152h-152v-151
h-1365z" />
    <glyph glyph-name="H" unicode="H" 
d="M303 0v3185h455v-1365h1365v1365h455v-3185h-455v1365h-1365v-1365h-455z" />
    <glyph glyph-name="I" unicode="I" 
d="M303 0v455h910v2275h-910v455h2275v-455h-910v-2275h910v-455h-2275z" />
    <glyph glyph-name="J" unicode="J" 
d="M758 0v151h-152v152h-151v152h-152v455h455v-152h152v-152h151v-151h759v151h152v152h151v1972h-1365v455h1820v-2730h-151v-152h-152v-152h-152v-151h-1365z" />
    <glyph glyph-name="K" unicode="K" 
d="M303 0v3185h455v-1365h152v152h151v151h152v152h152v152h152v151h151v152h152v152h152v152h151v151h455v-455h-151v-152h-152v-151h-152v-152h-151v-152h-152v-151h-152v-152h-151v-152h-152v-151h152v-152h151v-152h152v-152h152v-151h151v-152h152v-152h152v-151h151
v-455h-455v151h-151v152h-152v152h-152v151h-151v152h-152v152h-152v151h-152v152h-151v152h-152v-1365h-455z" />
    <glyph glyph-name="L" unicode="L" 
d="M303 0v3185h455v-2730h1820v-455h-2275z" />
    <glyph glyph-name="M" unicode="M" 
d="M303 0v3185h455v-151h152v-152h151v-152h152v-152h152v-151h152v151h151v152h152v152h152v152h151v151h455v-3185h-455v2275h-151v-152h-152v-151h-152v-152h-455v152h-152v151h-151v152h-152v-2275h-455z" />
    <glyph glyph-name="N" unicode="N" 
d="M303 0v3185h455v-151h152v-152h151v-152h152v-152h152v-151h152v-152h151v-152h152v-151h152v-152h151v1365h455v-3185h-455v1061h-151v152h-152v152h-152v152h-151v151h-152v152h-152v152h-152v151h-151v152h-152v-2275h-455z" />
    <glyph glyph-name="O" unicode="O" 
d="M1820 455v151h152v152h151v1669h-151v151h-152v152h-759v-152h-151v-151h-152v-1669h152v-152h151v-151h759zM758 0v151h-152v152h-151v152h-152v2275h152v152h151v152h152v151h1365v-151h152v-152h152v-152h151v-2275h-151v-152h-152v-152h-152v-151h-1365z" />
    <glyph glyph-name="P" unicode="P" 
d="M1820 1820v152h152v151h151v304h-151v151h-152v152h-1062v-910h1062zM303 0v3185h1820v-151h152v-152h152v-152h151v-910h-151v-152h-152v-151h-152v-152h-1365v-1365h-455z" />
    <glyph glyph-name="Q" unicode="Q" 
d="M1668 455v151h-151v152h-152v152h-152v455h455v-152h152v-152h152v-151h151v1517h-151v151h-152v152h-759v-152h-151v-151h-152v-1669h152v-152h151v-151h607zM758 0v151h-152v152h-151v152h-152v2275h152v152h151v152h152v151h1365v-151h152v-152h152v-152h151v-1820
h-151v-152h-152v-152h152v-151h151v-455h-455v151h-151v152h-152v-152h-152v-151h-910z" />
    <glyph glyph-name="R" unicode="R" 
d="M1820 1820v152h152v151h151v304h-151v151h-152v152h-1062v-910h1062zM303 0v3185h1820v-151h152v-152h152v-152h151v-910h-151v-152h-152v-151h-152v-152h-455v-152h152v-152h152v-151h151v-152h152v-152h152v-151h151v-455h-455v151h-151v152h-152v152h-152v151h-151
v152h-152v152h-152v151h-152v152h-151v152h-152v-1365h-455z" />
    <glyph glyph-name="S" unicode="S" 
d="M758 0v151h-152v152h-151v152h-152v455h455v-152h152v-152h151v-151h759v151h152v152h151v303h-151v152h-152v152h-1062v152h-152v151h-151v152h-152v910h152v152h151v152h152v151h1365v-151h152v-152h152v-152h151v-455h-455v152h-151v151h-152v152h-759v-152h-151v-151
h-152v-304h152v-151h151v-152h1062v-152h152v-151h152v-152h151v-910h-151v-152h-152v-152h-152v-151h-1365z" />
    <glyph glyph-name="T" unicode="T" 
d="M1213 0v2730h-910v455h2275v-455h-910v-2730h-455z" />
    <glyph glyph-name="U" unicode="U" 
d="M758 0v151h-152v152h-151v152h-152v2730h455v-2427h152v-152h151v-151h759v151h152v152h151v2427h455v-2730h-151v-152h-152v-152h-152v-151h-1365z" />
    <glyph glyph-name="V" unicode="V" 
d="M1213 0v606h-152v152h-151v152h-152v607h-152v151h-151v152h-152v1365h455v-1062h152v-151h151v-152h152v-607h152v-152h152v152h151v607h152v152h152v151h151v1062h455v-1365h-151v-152h-152v-151h-152v-607h-151v-152h-152v-152h-152v-606h-455z" />
    <glyph glyph-name="W" unicode="W" 
d="M303 0v3185h455v-2275h152v151h151v152h152v152h455v-152h152v-152h152v-151h151v2275h455v-3185h-455v151h-151v152h-152v152h-152v151h-151v152h-152v-152h-152v-151h-152v-152h-151v-152h-152v-151h-455z" />
    <glyph glyph-name="X" unicode="X" 
d="M303 0v1365h152v152h151v151h152v152h152v152h151v151h-151v152h-152v152h-152v151h-151v152h-152v455h455v-151h152v-152h151v-152h152v-152h152v-151h152v151h151v152h152v152h152v152h151v151h455v-455h-151v-152h-152v-151h-152v-152h-151v-152h-152v-151h152v-152
h151v-152h152v-151h152v-152h151v-1365h-455v1061h-151v152h-152v152h-152v152h-151v151h-152v-151h-152v-152h-152v-152h-151v-152h-152v-1061h-455z" />
    <glyph glyph-name="Y" unicode="Y" 
d="M1213 0v1517h-152v151h-151v152h-152v152h-152v151h-151v152h-152v910h455v-607h152v-151h151v-152h152v-152h152v-151h152v151h151v152h152v152h152v151h151v607h455v-910h-151v-152h-152v-151h-152v-152h-151v-152h-152v-151h-152v-1517h-455z" />
    <glyph glyph-name="Z" unicode="Z" 
d="M303 0v910h152v151h151v152h152v152h152v152h151v151h152v152h152v152h152v151h151v152h152v152h152v303h-1669v455h2275v-910h-151v-152h-152v-151h-152v-152h-151v-152h-152v-151h-152v-152h-151v-152h-152v-152h-152v-151h-152v-152h-151v-303h1668v-455h-2275z" />
    <glyph glyph-name="bracketleft" unicode="[" horiz-adv-x="1820" 
d="M303 0v3185h1365v-455h-910v-2275h910v-455h-1365z" />
    <glyph glyph-name="backslash" unicode="\" 
d="M2123 0v606h-151v152h-152v152h-152v151h-151v152h-152v152h-152v152h-152v151h-151v152h-152v152h-152v151h-151v152h-152v910h455v-607h152v-151h151v-152h152v-152h152v-151h152v-152h151v-152h152v-151h152v-152h151v-152h152v-152h152v-151h151v-910h-455z" />
    <glyph glyph-name="bracketright" unicode="]" horiz-adv-x="1820" 
d="M303 0v455h910v2275h-910v455h1365v-3185h-1365z" />
    <glyph glyph-name="asciicircum" unicode="^" 
d="M303 1820v455h152v152h151v151h152v152h152v152h151v152h152v151h455v-151h152v-152h152v-152h151v-152h152v-151h152v-152h151v-455h-455v152h-151v151h-152v152h-152v152h-151v151h-152v-151h-152v-152h-152v-152h-151v-151h-152v-152h-455z" />
    <glyph glyph-name="underscore" unicode="_" 
d="M303 0v455h2275v-455h-2275z" />
    <glyph glyph-name="grave" unicode="`" horiz-adv-x="1365" 
d="M758 2275v152h-152v151h-151v152h-152v455h455v-151h152v-152h151v-152h152v-455h-455z" />
    <glyph glyph-name="a" unicode="a" 
d="M2123 455v455h-1062v-152h-151v-152h151v-151h1062zM758 0v151h-152v152h-151v152h-152v455h152v151h151v152h152v152h1365v152h-151v151h-152v152h-1062v455h1365v-152h152v-151h152v-152h151v-1820h-1820z" />
    <glyph glyph-name="b" unicode="b" 
d="M1820 455v151h152v152h151v759h-151v151h-152v152h-1062v-607h152v-152h151v-151h152v-152h152v-152h152v-151h303zM303 0v3185h455v-910h1365v-152h152v-151h152v-152h151v-1365h-151v-152h-152v-152h-152v-151h-910v151h-152v152h-151v152h-152v-455h-455z" />
    <glyph glyph-name="c" unicode="c" 
d="M758 0v151h-152v152h-151v152h-152v1365h152v152h151v151h152v152h1365v-152h152v-151h152v-152h151v-455h-455v152h-151v151h-152v152h-759v-152h-151v-151h-152v-759h152v-152h151v-151h759v151h152v152h151v152h455v-455h-151v-152h-152v-152h-152v-151h-1365z" />
    <glyph glyph-name="d" unicode="d" 
d="M2123 455v606h-151v152h-152v152h-152v152h-151v151h-152v152h-304v-152h-151v-151h-152v-759h152v-152h151v-151h1062zM758 0v151h-152v152h-151v152h-152v1365h152v152h151v151h152v152h910v-152h152v-151h152v-152h151v1365h455v-3185h-1820z" />
    <glyph glyph-name="e" unicode="e" 
d="M2123 1365v152h-151v151h-152v152h-759v-152h-151v-151h-152v-152h1365zM758 0v151h-152v152h-151v152h-152v1365h152v152h151v151h152v152h1365v-152h152v-151h152v-152h151v-910h-1820v-152h152v-152h151v-151h1517v-455h-1820z" />
    <glyph glyph-name="f" unicode="f" horiz-adv-x="2275" 
d="M303 0v2730h152v152h151v152h152v151h910v-151h152v-152h152v-152h151v-455h-455v152h-151v151h-152v152h-304v-152h-151v-151h-152v-607h1365v-455h-1365v-1365h-455z" />
    <glyph glyph-name="g" unicode="g" 
d="M1365 455v151h152v152h151v152h152v151h152v152h151v607h-1062v-152h-151v-151h-152v-759h152v-152h151v-151h304zM303 -910v455h1517v152h152v152h151v606h-151v-152h-152v-152h-152v-151h-910v151h-152v152h-151v152h-152v1365h152v152h151v151h152v152h1820v-2730
h-151v-151h-152v-152h-152v-152h-1820z" />
    <glyph glyph-name="h" unicode="h" 
d="M303 0v3185h455v-1365h152v152h151v151h152v152h910v-152h152v-151h152v-152h151v-1820h-455v1517h-151v151h-152v152h-303v-152h-152v-151h-152v-152h-152v-152h-151v-152h-152v-1061h-455z" />
    <glyph glyph-name="i" unicode="i" horiz-adv-x="910" 
d="M303 0v2275h455v-2275h-455zM303 2730v455h455v-455h-455z" />
    <glyph glyph-name="j" unicode="j" 
d="M758 -455v152h-152v152h-151v151h-152v455h455v-152h152v-152h151v-151h759v151h152v152h151v1972h455v-2275h-151v-151h-152v-152h-152v-152h-1365zM2123 2730v455h455v-455h-455z" />
    <glyph glyph-name="k" unicode="k" horiz-adv-x="2275" 
d="M303 0v3185h455v-1820h152v152h151v151h152v152h152v152h152v151h151v152h455v-455h-151v-152h-152v-151h-152v-152h-151v-152h-152v-152h152v-151h151v-152h152v-152h152v-151h151v-455h-455v151h-151v152h-152v152h-152v151h-152v152h-151v152h-152v-910h-455z" />
    <glyph glyph-name="l" unicode="l" horiz-adv-x="1820" 
d="M758 0v151h-152v152h-151v152h-152v2730h455v-2427h152v-152h151v-151h607v-455h-910z" />
    <glyph glyph-name="m" unicode="m" 
d="M303 0v2275h910v-152h152v-151h152v151h151v152h455v-152h152v-151h152v-152h151v-1820h-455v1517h-151v151h-152v-151h-152v-607h-455v607h-152v151h-151v-151h-152v-1517h-455z" />
    <glyph glyph-name="n" unicode="n" 
d="M303 0v2275h455v-455h152v152h151v151h152v152h910v-152h152v-151h152v-152h151v-1820h-455v1517h-151v151h-152v152h-303v-152h-152v-151h-152v-152h-152v-152h-151v-152h-152v-1061h-455z" />
    <glyph glyph-name="o" unicode="o" 
d="M1820 455v151h152v152h151v759h-151v151h-152v152h-759v-152h-151v-151h-152v-759h152v-152h151v-151h759zM758 0v151h-152v152h-151v152h-152v1365h152v152h151v151h152v152h1365v-152h152v-151h152v-152h151v-1365h-151v-152h-152v-152h-152v-151h-1365z" />
    <glyph glyph-name="p" unicode="p" 
d="M1820 455v151h152v152h151v759h-151v151h-152v152h-303v-152h-152v-151h-152v-152h-152v-152h-151v-152h-152v-606h1062zM303 -910v3185h455v-455h152v152h151v151h152v152h910v-152h152v-151h152v-152h151v-1365h-151v-152h-152v-152h-152v-151h-1365v-910h-455z" />
    <glyph glyph-name="q" unicode="q" 
d="M1365 455v151h152v152h151v152h152v151h152v152h151v607h-1062v-152h-151v-151h-152v-759h152v-152h151v-151h304zM2123 -910v1365h-151v-152h-152v-152h-152v-151h-910v151h-152v152h-151v152h-152v1365h152v152h151v151h152v152h1820v-3185h-455z" />
    <glyph glyph-name="r" unicode="r" 
d="M303 0v2275h455v-455h152v152h151v151h152v152h910v-152h152v-151h152v-152h151v-455h-455v152h-151v151h-152v152h-303v-152h-152v-151h-152v-152h-152v-152h-151v-152h-152v-1061h-455z" />
    <glyph glyph-name="s" unicode="s" 
d="M303 0v455h1517v151h152v152h-152v152h-1062v151h-152v152h-151v152h-152v455h152v152h151v151h152v152h1820v-455h-1517v-152h-151v-151h151v-152h1062v-152h152v-152h152v-151h151v-455h-151v-152h-152v-152h-152v-151h-1820z" />
    <glyph glyph-name="t" unicode="t" horiz-adv-x="2275" 
d="M758 0v151h-152v152h-151v152h-152v2730h455v-910h1365v-455h-1365v-1062h152v-152h151v-151h304v151h152v152h151v607h455v-910h-151v-152h-152v-152h-152v-151h-910z" />
    <glyph glyph-name="u" unicode="u" 
d="M758 0v151h-152v152h-151v152h-152v1820h455v-1517h152v-152h151v-151h304v151h152v152h151v152h152v151h152v152h151v1062h455v-2275h-455v455h-151v-152h-152v-152h-152v-151h-910z" />
    <glyph glyph-name="v" unicode="v" 
d="M1213 0v151h-152v152h-151v152h-152v151h-152v152h-151v152h-152v1365h455v-1062h152v-152h151v-151h152v-152h152v-152h152v152h151v152h152v151h152v152h151v1062h455v-1365h-151v-152h-152v-152h-152v-151h-151v-152h-152v-152h-152v-151h-455z" />
    <glyph glyph-name="w" unicode="w" 
d="M758 0v151h-152v152h-151v152h-152v1820h455v-1517h152v-152h151v152h152v607h455v-607h152v-152h152v152h151v1517h455v-1820h-151v-152h-152v-152h-152v-151h-455v151h-151v152h-152v-152h-152v-151h-455z" />
    <glyph glyph-name="x" unicode="x" 
d="M303 0v455h152v151h151v152h152v152h152v151h151v152h-151v152h-152v152h-152v151h-151v152h-152v455h455v-152h152v-151h151v-152h152v-152h152v-151h152v151h151v152h152v152h152v151h151v152h455v-455h-151v-152h-152v-151h-152v-152h-151v-152h-152v-152h152v-151
h151v-152h152v-152h152v-151h151v-455h-455v151h-151v152h-152v152h-152v151h-151v152h-152v-152h-152v-151h-152v-152h-151v-152h-152v-151h-455z" />
    <glyph glyph-name="y" unicode="y" 
d="M758 -910v455h1062v152h152v152h151v606h-1365v151h-152v152h-151v152h-152v1365h455v-1062h152v-152h151v-151h1062v1365h455v-2730h-151v-151h-152v-152h-152v-152h-1365z" />
    <glyph glyph-name="z" unicode="z" 
d="M303 0v455h152v151h151v152h152v152h152v151h151v152h152v152h152v152h152v151h151v152h-1365v455h2275v-455h-151v-152h-152v-151h-152v-152h-151v-152h-152v-152h-152v-151h-151v-152h-152v-152h-152v-151h1365v-455h-2275z" />
    <glyph glyph-name="braceleft" unicode="{" horiz-adv-x="1820" 
d="M1213 0v151h-152v152h-151v152h-152v758h-152v152h-303v455h303v152h152v758h152v152h151v152h152v151h455v-455h-151v-152h-152v-151h-152v-607h-152v-152h-151v-151h151v-152h152v-607h152v-152h152v-151h151v-455h-455z" />
    <glyph glyph-name="bar" unicode="|" horiz-adv-x="910" 
d="M303 -910v4095h455v-4095h-455z" />
    <glyph glyph-name="braceright" unicode="}" horiz-adv-x="1820" 
d="M303 0v455h152v151h151v152h152v607h152v152h151v151h-151v152h-152v607h-152v151h-151v152h-152v455h455v-151h152v-152h151v-152h152v-758h152v-152h303v-455h-303v-152h-152v-758h-152v-152h-151v-152h-152v-151h-455z" />
    <glyph glyph-name="asciitilde" unicode="~" horiz-adv-x="3185" 
d="M303 1820v455h152v152h151v151h152v152h910v-152h152v-151h152v-152h303v152h152v151h151v152h456v-455h-152v-152h-152v-151h-152v-152h-910v152h-151v151h-152v152h-304v-152h-151v-151h-152v-152h-455z" />
    <glyph glyph-name="exclamdown" unicode="&#xa1;" horiz-adv-x="910" 
d="M303 0v2275h455v-2275h-455zM303 2730v455h455v-455h-455z" />
    <glyph glyph-name="cent" unicode="&#xa2;" 
d="M1213 455v1365h-152v-152h-151v-151h-152v-759h152v-152h151v-151h152zM1213 -455v455h-455v151h-152v152h-151v152h-152v1365h152v152h151v151h152v152h455v455h455v-455h455v-152h152v-151h152v-152h151v-455h-455v152h-151v151h-152v152h-152v-1365h152v151h152v152
h151v152h455v-455h-151v-152h-152v-152h-152v-151h-455v-455h-455z" />
    <glyph glyph-name="sterling" unicode="&#xa3;" 
d="M303 0v455h455v910h-455v455h455v910h152v152h151v152h152v151h910v-151h152v-152h152v-152h151v-455h-455v152h-151v151h-152v152h-303v-152h-152v-151h-152v-607h1062v-455h-1062v-910h1365v-455h-2275z" />
    <glyph glyph-name="currency" unicode="&#xa4;" horiz-adv-x="1972" 
d="M303 758v303h303v-303h-303zM910 758v303h303v-303h-303zM1517 758v303h303v-303h-303zM606 1061v304h304v-304h-304zM1213 1061v304h304v-304h-304zM303 1365v303h303v-303h-303zM1517 1365v303h303v-303h-303zM606 1668v304h304v-304h-304zM1213 1668v304h304v-304
h-304zM303 1972v303h303v-303h-303zM910 1972v303h303v-303h-303zM1517 1972v303h303v-303h-303z" />
    <glyph glyph-name="yen" unicode="&#xa5;" 
d="M1213 0v455h-910v455h910v455h-910v455h910v152h-152v151h-151v152h-152v152h-152v151h-151v152h-152v455h455v-151h152v-152h151v-152h152v-152h152v-151h152v151h151v152h152v152h152v152h151v151h455v-455h-151v-152h-152v-151h-152v-152h-151v-152h-152v-151h-152
v-152h910v-455h-910v-455h910v-455h-910v-455h-455z" />
    <glyph glyph-name="brokenbar" unicode="&#xa6;" horiz-adv-x="910" 
d="M303 -910v1820h455v-1820h-455zM303 1365v1820h455v-1820h-455z" />
    <glyph glyph-name="dieresis" unicode="&#xa8;" horiz-adv-x="1820" 
d="M303 2275v455h455v-455h-455zM1213 2275v455h455v-455h-455z" />
    <glyph glyph-name="copyright" unicode="&#xa9;" horiz-adv-x="2427" 
d="M1061 1365v152h-151v151h-152v759h152v151h151v152h456v-152h151v-151h152v-304h-303v152h-152v152h-152v-152h-152v-455h152v-152h152v152h152v152h303v-304h-152v-151h-151v-152h-456zM1517 1213v152h151v152h152v151h152v759h-152v151h-152v152h-151v152h-456v-152
h-151v-152h-152v-151h-152v-759h152v-151h152v-152h151v-152h456zM910 910v151h-152v152h-152v152h-151v152h-152v1061h152v152h151v152h152v152h152v151h758v-151h152v-152h152v-152h151v-152h152v-1061h-152v-152h-151v-152h-152v-152h-152v-151h-758z" />
    <glyph glyph-name="ordfeminine" unicode="&#xaa;" horiz-adv-x="2275" 
d="M303 303v455h1820v-455h-1820zM758 1365v152h-152v151h-151v152h-152v455h1365v152h-151v151h-152v152h-607v455h910v-151h152v-152h152v-152h151v-1365h-1365z" />
    <glyph glyph-name="guillemotleft" unicode="&#xab;" horiz-adv-x="3185" 
d="M1213 0v151h-152v152h-151v152h-152v151h-152v152h-151v152h-152v455h152v152h151v151h152v152h152v152h151v151h152v152h455v-455h-151v-152h-152v-151h-152v-152h-152v-152h-151v-152h151v-151h152v-152h152v-152h152v-151h151v-455h-455zM2578 0v151h-151v152h-152
v152h-152v151h-151v152h-152v152h-152v455h152v152h152v151h151v152h152v152h152v151h151v152h456v-455h-152v-152h-152v-151h-152v-152h-151v-152h-152v-152h152v-151h151v-152h152v-152h152v-151h152v-455h-456z" />
    <glyph glyph-name="logicalnot" unicode="&#xac;" 
d="M2123 455v455h-1820v455h2275v-910h-455z" />
    <glyph glyph-name="uni00AD" unicode="&#xad;" horiz-adv-x="2275" 
d="M303 910v455h1820v-455h-1820z" />
    <glyph glyph-name="registered" unicode="&#xae;" horiz-adv-x="2427" 
d="M1517 2123v152h-304v-152h304zM1517 1213v304h-152v303h-152v-303h-303v1061h758v-151h152v-455h-152v-304h304v759h-152v151h-152v152h-151v152h-456v-152h-151v-152h-152v-151h-152v-759h152v-151h152v-152h151v-152h456zM910 910v151h-152v152h-152v152h-151v152h-152
v1061h152v152h151v152h152v152h152v151h758v-151h152v-152h152v-152h151v-152h152v-1061h-152v-152h-151v-152h-152v-152h-152v-151h-758z" />
    <glyph glyph-name="macron" unicode="&#xaf;" horiz-adv-x="2275" 
d="M303 1820v455h1820v-455h-1820z" />
    <glyph glyph-name="plusminus" unicode="&#xb1;" 
d="M303 0v455h2275v-455h-2275zM1213 910v455h-910v455h910v455h455v-455h910v-455h-910v-455h-455z" />
    <glyph glyph-name="mu" unicode="&#xb5;" 
d="M303 -910v3185h455v-607h152v-151h151v-152h152v-152h152v-152h152v152h151v152h152v152h152v151h151v607h455v-2275h-455v910h-151v-152h-152v-152h-152v-151h-455v151h-152v152h-151v152h-152v-1820h-455z" />
    <glyph glyph-name="paragraph" unicode="&#xb6;" 
d="M2123 455v2275h-303v-2275h303zM1365 0v1365h-607v152h-152v151h-151v152h-152v910h152v152h151v152h152v151h1820v-3185h-1213z" />
    <glyph glyph-name="guillemotright" unicode="&#xbb;" horiz-adv-x="3185" 
d="M303 0v455h152v151h151v152h152v152h152v151h151v152h-151v152h-152v152h-152v151h-151v152h-152v455h455v-152h152v-151h151v-152h152v-152h152v-151h152v-152h151v-455h-151v-152h-152v-152h-152v-151h-152v-152h-151v-152h-152v-151h-455zM1668 0v455h152v151h152v152
h151v152h152v151h152v152h-152v152h-152v152h-151v151h-152v152h-152v455h455v-152h152v-151h152v-152h151v-152h152v-151h152v-152h152v-455h-152v-152h-152v-152h-152v-151h-151v-152h-152v-152h-152v-151h-455z" />
    <glyph glyph-name="questiondown" unicode="&#xbf;" 
d="M758 0v151h-152v152h-151v152h-152v910h152v152h151v151h152v152h152v152h151v151h152v152h455v-455h-151v-152h-152v-151h-152v-152h-152v-152h-151v-152h-152v-303h152v-152h151v-151h759v151h152v152h151v152h455v-455h-151v-152h-152v-152h-152v-151h-1365z
M1213 2730v455h455v-455h-455z" />
    <glyph glyph-name="Agrave" unicode="&#xc0;" 
d="M2123 1820v607h-151v151h-152v152h-759v-152h-151v-151h-152v-607h1365zM303 0v2730h152v152h151v152h152v151h1365v-151h152v-152h152v-152h151v-2730h-455v1365h-1365v-1365h-455zM1213 3640v152h-152v152h-151v152h-152v455h455v-152h152v-152h152v-151h151v-456h-455
z" />
    <glyph glyph-name="Aacute" unicode="&#xc1;" 
d="M2123 1820v607h-151v151h-152v152h-759v-152h-151v-151h-152v-607h1365zM303 0v2730h152v152h151v152h152v151h1365v-151h152v-152h152v-152h151v-2730h-455v1365h-1365v-1365h-455zM1213 3640v456h152v151h152v152h151v152h455v-455h-151v-152h-152v-152h-152v-152h-455
z" />
    <glyph glyph-name="Acircumflex" unicode="&#xc2;" 
d="M2123 1820v607h-151v151h-152v152h-759v-152h-151v-151h-152v-607h1365zM303 0v2730h152v152h151v152h152v151h1365v-151h152v-152h152v-152h151v-2730h-455v1365h-1365v-1365h-455zM758 3640v456h152v151h151v152h152v152h455v-152h152v-152h152v-151h151v-456h-455v152
h-151v152h-152v-152h-152v-152h-455z" />
    <glyph glyph-name="Atilde" unicode="&#xc3;" 
d="M2123 1820v607h-151v151h-152v152h-759v-152h-151v-151h-152v-607h1365zM303 0v2730h152v152h151v152h152v151h1365v-151h152v-152h152v-152h151v-2730h-455v1365h-1365v-1365h-455zM606 3640v456h152v151h152v152h151v152h456v-152h151v-152h152v152h152v152h455v-455
h-152v-152h-152v-152h-151v-152h-455v152h-152v152h-152v-152h-152v-152h-455z" />
    <glyph glyph-name="Adieresis" unicode="&#xc4;" 
d="M2123 1820v607h-151v151h-152v152h-759v-152h-151v-151h-152v-607h1365zM303 0v2730h152v152h151v152h152v151h1365v-151h152v-152h152v-152h151v-2730h-455v1365h-1365v-1365h-455zM758 3640v456h455v-456h-455zM1668 3640v456h455v-456h-455z" />
    <glyph glyph-name="Aring" unicode="&#xc5;" 
d="M2123 1820v607h-151v151h-152v152h-759v-152h-151v-151h-152v-607h1365zM1517 3640v152h151v152h-151v152h-152v-152h-152v-152h152v-152h152zM303 0v2730h152v152h151v152h152v151h455v152h-152v152h-151v151h-152v456h152v151h151v152h152v152h455v-152h152v-152h152
v-151h151v-456h-151v-151h-152v-152h-152v-152h455v-151h152v-152h152v-152h151v-2730h-455v1365h-1365v-1365h-455z" />
    <glyph glyph-name="AE" unicode="&#xc6;" horiz-adv-x="4551" 
d="M2123 1820v607h-151v151h-152v152h-759v-152h-151v-151h-152v-607h1365zM303 0v2730h152v152h151v152h152v151h1365v-151h152v-152h152v152h151v151h1821v-455h-1517v-152h-152v-151h-152v-607h1366v-455h-1366v-607h152v-152h152v-151h1517v-455h-1821v151h-151v152
h-152v152h-152v910h-1365v-1365h-455z" />
    <glyph glyph-name="Ccedilla" unicode="&#xc7;" 
d="M758 -910v455h152v152h151v152h152v151h-455v151h-152v152h-151v152h-152v2275h152v152h151v152h152v151h1365v-151h152v-152h152v-152h151v-455h-455v152h-151v151h-152v152h-759v-152h-151v-151h-152v-1669h152v-152h151v-151h759v151h152v152h151v152h455v-455h-151
v-152h-152v-152h-152v-151h-151v-151h-152v-152h-152v-152h-151v-151h-152v-152h-152v-152h-455z" />
    <glyph glyph-name="Egrave" unicode="&#xc8;" 
d="M758 0v151h-152v152h-151v152h-152v2275h152v152h151v152h152v151h1820v-455h-1517v-152h-151v-151h-152v-607h1365v-455h-1365v-607h152v-152h151v-151h1517v-455h-1820zM1365 3640v152h-152v152h-152v152h-151v455h455v-152h152v-152h151v-151h152v-456h-455z" />
    <glyph glyph-name="Eacute" unicode="&#xc9;" 
d="M758 0v151h-152v152h-151v152h-152v2275h152v152h151v152h152v151h1820v-455h-1517v-152h-151v-151h-152v-607h1365v-455h-1365v-607h152v-152h151v-151h1517v-455h-1820zM1365 3640v456h152v151h151v152h152v152h455v-455h-152v-152h-151v-152h-152v-152h-455z" />
    <glyph glyph-name="Ecircumflex" unicode="&#xca;" 
d="M758 0v151h-152v152h-151v152h-152v2275h152v152h151v152h152v151h1820v-455h-1517v-152h-151v-151h-152v-607h1365v-455h-1365v-607h152v-152h151v-151h1517v-455h-1820zM758 3640v456h152v151h151v152h152v152h455v-152h152v-152h152v-151h151v-456h-455v152h-151v152
h-152v-152h-152v-152h-455z" />
    <glyph glyph-name="Edieresis" unicode="&#xcb;" 
d="M758 0v151h-152v152h-151v152h-152v2275h152v152h151v152h152v151h1820v-455h-1517v-152h-151v-151h-152v-607h1365v-455h-1365v-607h152v-152h151v-151h1517v-455h-1820zM758 3640v456h455v-456h-455zM1820 3640v456h455v-456h-455z" />
    <glyph glyph-name="Igrave" unicode="&#xcc;" 
d="M303 0v455h910v2275h-910v455h2275v-455h-910v-2275h910v-455h-2275zM1213 3640v152h-152v152h-151v152h-152v455h455v-152h152v-152h152v-151h151v-456h-455z" />
    <glyph glyph-name="Iacute" unicode="&#xcd;" 
d="M303 0v455h910v2275h-910v455h2275v-455h-910v-2275h910v-455h-2275zM1213 3640v456h152v151h152v152h151v152h455v-455h-151v-152h-152v-152h-152v-152h-455z" />
    <glyph glyph-name="Icircumflex" unicode="&#xce;" 
d="M303 0v455h910v2275h-910v455h2275v-455h-910v-2275h910v-455h-2275zM758 3640v456h152v151h151v152h152v152h455v-152h152v-152h152v-151h151v-456h-455v152h-151v152h-152v-152h-152v-152h-455z" />
    <glyph glyph-name="Idieresis" unicode="&#xcf;" 
d="M303 0v455h910v2275h-910v455h2275v-455h-910v-2275h910v-455h-2275zM758 3640v456h455v-456h-455zM1668 3640v456h455v-456h-455z" />
    <glyph glyph-name="Eth" unicode="&#xd0;" 
d="M1820 455v151h152v152h151v1669h-151v151h-152v152h-1062v-910h455v-455h-455v-910h1062zM303 0v1365h-454v455h454v1365h1820v-151h152v-152h152v-152h151v-2275h-151v-152h-152v-152h-152v-151h-1820z" />
    <glyph glyph-name="Ntilde" unicode="&#xd1;" 
d="M303 0v3185h455v-151h152v-152h151v-152h152v-152h152v-151h152v-152h151v-152h152v-151h152v-152h151v1365h455v-3185h-455v1061h-151v152h-152v152h-152v152h-151v151h-152v152h-152v152h-152v151h-151v152h-152v-2275h-455zM606 3640v456h152v151h152v152h151v152h456
v-152h151v-152h152v152h152v152h455v-455h-152v-152h-152v-152h-151v-152h-455v152h-152v152h-152v-152h-152v-152h-455z" />
    <glyph glyph-name="Ograve" unicode="&#xd2;" 
d="M1820 455v151h152v152h151v1669h-151v151h-152v152h-759v-152h-151v-151h-152v-1669h152v-152h151v-151h759zM758 0v151h-152v152h-151v152h-152v2275h152v152h151v152h152v151h1365v-151h152v-152h152v-152h151v-2275h-151v-152h-152v-152h-152v-151h-1365zM1213 3640
v152h-152v152h-151v152h-152v455h455v-152h152v-152h152v-151h151v-456h-455z" />
    <glyph glyph-name="Oacute" unicode="&#xd3;" 
d="M1820 455v151h152v152h151v1669h-151v151h-152v152h-759v-152h-151v-151h-152v-1669h152v-152h151v-151h759zM758 0v151h-152v152h-151v152h-152v2275h152v152h151v152h152v151h1365v-151h152v-152h152v-152h151v-2275h-151v-152h-152v-152h-152v-151h-1365zM1213 3640
v456h152v151h152v152h151v152h455v-455h-151v-152h-152v-152h-152v-152h-455z" />
    <glyph glyph-name="Ocircumflex" unicode="&#xd4;" 
d="M1820 455v151h152v152h151v1669h-151v151h-152v152h-759v-152h-151v-151h-152v-1669h152v-152h151v-151h759zM758 0v151h-152v152h-151v152h-152v2275h152v152h151v152h152v151h1365v-151h152v-152h152v-152h151v-2275h-151v-152h-152v-152h-152v-151h-1365zM758 3640
v456h152v151h151v152h152v152h455v-152h152v-152h152v-151h151v-456h-455v152h-151v152h-152v-152h-152v-152h-455z" />
    <glyph glyph-name="Otilde" unicode="&#xd5;" 
d="M1820 455v151h152v152h151v1669h-151v151h-152v152h-759v-152h-151v-151h-152v-1669h152v-152h151v-151h759zM758 0v151h-152v152h-151v152h-152v2275h152v152h151v152h152v151h1365v-151h152v-152h152v-152h151v-2275h-151v-152h-152v-152h-152v-151h-1365zM606 3640
v456h152v151h152v152h151v152h456v-152h151v-152h152v152h152v152h455v-455h-152v-152h-152v-152h-151v-152h-455v152h-152v152h-152v-152h-152v-152h-455z" />
    <glyph glyph-name="Odieresis" unicode="&#xd6;" 
d="M1820 455v151h152v152h151v1669h-151v151h-152v152h-759v-152h-151v-151h-152v-1669h152v-152h151v-151h759zM758 0v151h-152v152h-151v152h-152v2275h152v152h151v152h152v151h1365v-151h152v-152h152v-152h151v-2275h-151v-152h-152v-152h-152v-151h-1365zM758 3640
v456h455v-456h-455zM1668 3640v456h455v-456h-455z" />
    <glyph glyph-name="multiply" unicode="&#xd7;" 
d="M303 455v455h152v151h151v152h152v152h152v152h151v151h-151v152h-152v152h-152v151h-151v152h-152v455h455v-152h152v-151h151v-152h152v-152h152v-151h152v151h151v152h152v152h152v151h151v152h455v-455h-151v-152h-152v-151h-152v-152h-151v-152h-152v-151h152v-152
h151v-152h152v-152h152v-151h151v-455h-455v151h-151v152h-152v152h-152v151h-151v152h-152v-152h-152v-151h-152v-152h-151v-152h-152v-151h-455z" />
    <glyph glyph-name="Oslash" unicode="&#xd8;" 
d="M1820 455v151h152v152h151v1062h-151v-152h-152v-151h-152v-152h-151v-152h-152v-152h-152v-606h607zM910 1365v152h151v151h152v152h152v152h152v151h151v607h-607v-152h-151v-151h-152v-1062h152zM758 0v151h-152v152h-151v152h-152v2275h152v152h151v152h152v151h1365
v-151h152v-152h152v-152h151v-2275h-151v-152h-152v-152h-152v-151h-1365z" />
    <glyph glyph-name="Ugrave" unicode="&#xd9;" 
d="M758 0v151h-152v152h-151v152h-152v2730h455v-2427h152v-152h151v-151h759v151h152v152h151v2427h455v-2730h-151v-152h-152v-152h-152v-151h-1365zM1213 3640v152h-152v152h-151v152h-152v455h455v-152h152v-152h152v-151h151v-456h-455z" />
    <glyph glyph-name="Uacute" unicode="&#xda;" 
d="M758 0v151h-152v152h-151v152h-152v2730h455v-2427h152v-152h151v-151h759v151h152v152h151v2427h455v-2730h-151v-152h-152v-152h-152v-151h-1365zM1213 3640v456h152v151h152v152h151v152h455v-455h-151v-152h-152v-152h-152v-152h-455z" />
    <glyph glyph-name="Ucircumflex" unicode="&#xdb;" 
d="M758 0v151h-152v152h-151v152h-152v2730h455v-2427h152v-152h151v-151h759v151h152v152h151v2427h455v-2730h-151v-152h-152v-152h-152v-151h-1365zM758 3640v456h152v151h151v152h152v152h455v-152h152v-152h152v-151h151v-456h-455v152h-151v152h-152v-152h-152v-152
h-455z" />
    <glyph glyph-name="Udieresis" unicode="&#xdc;" 
d="M758 0v151h-152v152h-151v152h-152v2730h455v-2427h152v-152h151v-151h759v151h152v152h151v2427h455v-2730h-151v-152h-152v-152h-152v-151h-1365zM758 3640v456h455v-456h-455zM1668 3640v456h455v-456h-455z" />
    <glyph glyph-name="Yacute" unicode="&#xdd;" 
d="M1213 0v1517h-152v151h-151v152h-152v152h-152v151h-151v152h-152v910h455v-607h152v-151h151v-152h152v-152h152v-151h152v151h151v152h152v152h152v151h151v607h455v-910h-151v-152h-152v-151h-152v-152h-151v-152h-152v-151h-152v-1517h-455zM1213 3640v456h152v151
h152v152h151v152h455v-455h-151v-152h-152v-152h-152v-152h-455z" />
    <glyph glyph-name="Thorn" unicode="&#xde;" 
d="M1820 910v151h152v152h151v759h-151v151h-152v152h-1062v-1365h1062zM303 0v3185h455v-455h1365v-152h152v-151h152v-152h151v-1365h-151v-152h-152v-152h-152v-151h-1365v-455h-455z" />
    <glyph glyph-name="germandbls" unicode="&#xdf;" 
d="M303 0v2730h152v152h151v152h152v151h910v-151h152v-152h152v-152h151v-455h-151v-152h-152v-151h152v-152h151v-152h152v-151h152v-152h151v-910h-151v-152h-152v-152h-152v-151h-606v151h-152v152h-152v152h-152v455h456v-152h151v-152h304v152h151v303h-151v152h-152
v152h-152v152h-151v151h-152v152h-152v455h152v152h152v151h-152v152h-304v-152h-151v-151h-152v-2427h-455z" />
    <glyph glyph-name="agrave" unicode="&#xe0;" 
d="M2123 455v455h-1062v-152h-151v-152h151v-151h1062zM758 0v151h-152v152h-151v152h-152v455h152v151h151v152h152v152h1365v152h-151v151h-152v152h-1062v455h1365v-152h152v-151h152v-152h151v-1820h-1820zM1213 2730v152h-152v152h-151v151h-152v455h455v-151h152v-152
h152v-152h151v-455h-455z" />
    <glyph glyph-name="aacute" unicode="&#xe1;" 
d="M2123 455v455h-1062v-152h-151v-152h151v-151h1062zM758 0v151h-152v152h-151v152h-152v455h152v151h151v152h152v152h1365v152h-151v151h-152v152h-1062v455h1365v-152h152v-151h152v-152h151v-1820h-1820zM1213 2730v455h152v152h152v152h151v151h455v-455h-151v-151
h-152v-152h-152v-152h-455z" />
    <glyph glyph-name="acircumflex" unicode="&#xe2;" 
d="M2123 455v455h-1062v-152h-151v-152h151v-151h1062zM758 0v151h-152v152h-151v152h-152v455h152v151h151v152h152v152h1365v152h-151v151h-152v152h-1062v455h1365v-152h152v-151h152v-152h151v-1820h-1820zM758 2730v455h152v152h151v152h152v151h455v-151h152v-152h152
v-152h151v-455h-455v152h-151v152h-152v-152h-152v-152h-455z" />
    <glyph glyph-name="atilde" unicode="&#xe3;" 
d="M2123 455v455h-1062v-152h-151v-152h151v-151h1062zM758 0v151h-152v152h-151v152h-152v455h152v151h151v152h152v152h1365v152h-151v151h-152v152h-1062v455h1365v-152h152v-151h152v-152h151v-1820h-1820zM606 2730v455h152v152h152v152h151v151h456v-151h151v-152h152
v152h152v151h455v-455h-152v-151h-152v-152h-151v-152h-455v152h-152v152h-152v-152h-152v-152h-455z" />
    <glyph glyph-name="adieresis" unicode="&#xe4;" 
d="M2123 455v455h-1062v-152h-151v-152h151v-151h1062zM758 0v151h-152v152h-151v152h-152v455h152v151h151v152h152v152h1365v152h-151v151h-152v152h-1062v455h1365v-152h152v-151h152v-152h151v-1820h-1820zM758 2730v455h455v-455h-455zM1668 2730v455h455v-455h-455z
" />
    <glyph glyph-name="aring" unicode="&#xe5;" 
d="M2123 455v455h-1062v-152h-151v-152h151v-151h1062zM758 0v151h-152v152h-151v152h-152v455h152v151h151v152h152v152h1365v152h-151v151h-152v152h-1062v455h1365v-152h152v-151h152v-152h151v-1820h-1820zM1517 3185v152h151v152h-151v151h-152v-151h-152v-152h152
v-152h152zM1213 2730v152h-152v152h-151v151h-152v455h152v152h151v152h152v152h455v-152h152v-152h152v-152h151v-455h-151v-151h-152v-152h-152v-152h-455z" />
    <glyph glyph-name="ae" unicode="&#xe6;" horiz-adv-x="4551" 
d="M1820 455v151h152v152h151v152h-1062v-152h-151v-152h151v-151h759zM3944 1365v152h-152v151h-152v152h-758v-152h-152v-151h-152v-152h1366zM758 0v151h-152v152h-151v152h-152v455h152v151h151v152h152v152h1365v152h-151v151h-152v152h-1062v455h1365v-152h152v-151
h152v151h151v152h1366v-152h152v-151h151v-152h152v-910h-1821v-152h152v-152h152v-151h1517v-455h-1821v151h-151v152h-152v-152h-152v-151h-1365z" />
    <glyph glyph-name="ccedilla" unicode="&#xe7;" 
d="M758 -910v455h152v152h151v152h152v151h-455v151h-152v152h-151v152h-152v1365h152v152h151v151h152v152h1365v-152h152v-151h152v-152h151v-455h-455v152h-151v151h-152v152h-759v-152h-151v-151h-152v-759h152v-152h151v-151h759v151h152v152h151v152h455v-455h-151
v-152h-152v-152h-152v-151h-151v-151h-152v-152h-152v-152h-151v-151h-152v-152h-152v-152h-455z" />
    <glyph glyph-name="egrave" unicode="&#xe8;" 
d="M2123 1365v152h-151v151h-152v152h-759v-152h-151v-151h-152v-152h1365zM758 0v151h-152v152h-151v152h-152v1365h152v152h151v151h152v152h1365v-152h152v-151h152v-152h151v-910h-1820v-152h152v-152h151v-151h1517v-455h-1820zM1213 2730v152h-152v152h-151v151h-152
v455h455v-151h152v-152h152v-152h151v-455h-455z" />
    <glyph glyph-name="eacute" unicode="&#xe9;" 
d="M2123 1365v152h-151v151h-152v152h-759v-152h-151v-151h-152v-152h1365zM758 0v151h-152v152h-151v152h-152v1365h152v152h151v151h152v152h1365v-152h152v-151h152v-152h151v-910h-1820v-152h152v-152h151v-151h1517v-455h-1820zM1213 2730v455h152v152h152v152h151v151
h455v-455h-151v-151h-152v-152h-152v-152h-455z" />
    <glyph glyph-name="ecircumflex" unicode="&#xea;" 
d="M2123 1365v152h-151v151h-152v152h-759v-152h-151v-151h-152v-152h1365zM758 0v151h-152v152h-151v152h-152v1365h152v152h151v151h152v152h1365v-152h152v-151h152v-152h151v-910h-1820v-152h152v-152h151v-151h1517v-455h-1820zM758 2730v455h152v152h151v152h152v151
h455v-151h152v-152h152v-152h151v-455h-455v152h-151v152h-152v-152h-152v-152h-455z" />
    <glyph glyph-name="edieresis" unicode="&#xeb;" 
d="M2123 1365v152h-151v151h-152v152h-759v-152h-151v-151h-152v-152h1365zM758 0v151h-152v152h-151v152h-152v1365h152v152h151v151h152v152h1365v-152h152v-151h152v-152h151v-910h-1820v-152h152v-152h151v-151h1517v-455h-1820zM758 2730v455h455v-455h-455zM1668 2730
v455h455v-455h-455z" />
    <glyph glyph-name="igrave" unicode="&#xec;" horiz-adv-x="1365" 
d="M758 0v2275h455v-2275h-455zM758 2730v152h-152v152h-151v151h-152v455h455v-151h152v-152h151v-152h152v-455h-455z" />
    <glyph glyph-name="iacute" unicode="&#xed;" horiz-adv-x="1365" 
d="M303 0v2275h455v-2275h-455zM303 2730v455h152v152h151v152h152v151h455v-455h-152v-151h-151v-152h-152v-152h-455z" />
    <glyph glyph-name="icircumflex" unicode="&#xee;" horiz-adv-x="1820" 
d="M758 0v2275h455v-2275h-455zM303 2730v455h152v152h151v152h152v151h455v-151h152v-152h152v-152h151v-455h-455v152h-152v152h-151v-152h-152v-152h-455z" />
    <glyph glyph-name="idieresis" unicode="&#xef;" horiz-adv-x="1820" 
d="M758 0v2275h455v-2275h-455zM303 2730v455h455v-455h-455zM1213 2730v455h455v-455h-455z" />
    <glyph glyph-name="eth" unicode="&#xf0;" horiz-adv-x="3185" 
d="M1820 455v151h152v152h151v607h-1062v-152h-151v-152h-152v-303h152v-152h151v-151h759zM758 0v151h-152v152h-151v152h-152v910h152v152h151v151h152v152h1365v455h-910v455h910v455h455v-455h456v-455h-456v-1820h-151v-152h-152v-152h-152v-151h-1365z" />
    <glyph glyph-name="ntilde" unicode="&#xf1;" 
d="M303 0v2275h455v-455h152v152h151v151h152v152h910v-152h152v-151h152v-152h151v-1820h-455v1517h-151v151h-152v152h-303v-152h-152v-151h-152v-152h-152v-152h-151v-152h-152v-1061h-455zM606 2730v455h152v152h152v152h151v151h456v-151h151v-152h152v152h152v151h455
v-455h-152v-151h-152v-152h-151v-152h-455v152h-152v152h-152v-152h-152v-152h-455z" />
    <glyph glyph-name="ograve" unicode="&#xf2;" 
d="M1820 455v151h152v152h151v759h-151v151h-152v152h-759v-152h-151v-151h-152v-759h152v-152h151v-151h759zM758 0v151h-152v152h-151v152h-152v1365h152v152h151v151h152v152h1365v-152h152v-151h152v-152h151v-1365h-151v-152h-152v-152h-152v-151h-1365zM1213 2730v152
h-152v152h-151v151h-152v455h455v-151h152v-152h152v-152h151v-455h-455z" />
    <glyph glyph-name="oacute" unicode="&#xf3;" 
d="M1820 455v151h152v152h151v759h-151v151h-152v152h-759v-152h-151v-151h-152v-759h152v-152h151v-151h759zM758 0v151h-152v152h-151v152h-152v1365h152v152h151v151h152v152h1365v-152h152v-151h152v-152h151v-1365h-151v-152h-152v-152h-152v-151h-1365zM1213 2730v455
h152v152h152v152h151v151h455v-455h-151v-151h-152v-152h-152v-152h-455z" />
    <glyph glyph-name="ocircumflex" unicode="&#xf4;" 
d="M1820 455v151h152v152h151v1062h-1062v-152h-151v-151h-152v-759h152v-152h151v-151h759zM758 0v151h-152v152h-151v152h-152v1365h152v152h151v151h152v152h1365v-152h152v-151h152v-152h151v-1365h-151v-152h-152v-152h-152v-151h-1365zM758 2730v455h152v152h151v152
h152v151h455v-151h152v-152h152v-152h151v-455h-455v152h-151v152h-152v-152h-152v-152h-455z" />
    <glyph glyph-name="otilde" unicode="&#xf5;" 
d="M1820 455v151h152v152h151v759h-151v151h-152v152h-759v-152h-151v-151h-152v-759h152v-152h151v-151h759zM758 0v151h-152v152h-151v152h-152v1365h152v152h151v151h152v152h1365v-152h152v-151h152v-152h151v-1365h-151v-152h-152v-152h-152v-151h-1365zM606 2730v455
h152v152h152v152h151v151h456v-151h151v-152h152v152h152v151h455v-455h-152v-151h-152v-152h-151v-152h-455v152h-152v152h-152v-152h-152v-152h-455z" />
    <glyph glyph-name="odieresis" unicode="&#xf6;" 
d="M1820 455v151h152v152h151v759h-151v151h-152v152h-759v-152h-151v-151h-152v-759h152v-152h151v-151h759zM758 0v151h-152v152h-151v152h-152v1365h152v152h151v151h152v152h1365v-152h152v-151h152v-152h151v-1365h-151v-152h-152v-152h-152v-151h-1365zM758 2730v455
h455v-455h-455zM1668 2730v455h455v-455h-455z" />
    <glyph glyph-name="divide" unicode="&#xf7;" 
d="M1213 0v455h455v-455h-455zM303 910v455h2275v-455h-2275zM1213 1820v455h455v-455h-455z" />
    <glyph glyph-name="oslash" unicode="&#xf8;" 
d="M1820 455v151h152v152h151v607h-151v-152h-152v-152h-152v-151h-151v-152h-152v-152h-152v-151h607zM910 910v151h151v152h152v152h152v152h152v151h151v152h-607v-152h-151v-151h-152v-607h152zM303 0v455h152v151h151v152h-151v152h-152v910h152v152h151v151h152v152
h910v-152h152v-151h152v151h151v152h455v-455h-151v-152h-152v-151h152v-152h151v-910h-151v-152h-152v-152h-152v-151h-910v151h-152v152h-151v-152h-152v-151h-455z" />
    <glyph glyph-name="ugrave" unicode="&#xf9;" 
d="M758 0v151h-152v152h-151v152h-152v1820h455v-1517h152v-152h151v-151h304v151h152v152h151v152h152v151h152v152h151v1062h455v-2275h-455v455h-151v-152h-152v-152h-152v-151h-910zM1213 2730v152h-152v152h-151v151h-152v455h455v-151h152v-152h152v-152h151v-455
h-455z" />
    <glyph glyph-name="uacute" unicode="&#xfa;" 
d="M758 0v151h-152v152h-151v152h-152v1820h455v-1517h152v-152h151v-151h304v151h152v152h151v152h152v151h152v152h151v1062h455v-2275h-455v455h-151v-152h-152v-152h-152v-151h-910zM1213 2730v455h152v152h152v152h151v151h455v-455h-151v-151h-152v-152h-152v-152
h-455z" />
    <glyph glyph-name="ucircumflex" unicode="&#xfb;" 
d="M758 0v151h-152v152h-151v152h-152v1820h455v-1517h152v-152h151v-151h304v151h152v152h151v152h152v151h152v152h151v1062h455v-2275h-455v455h-151v-152h-152v-152h-152v-151h-910zM758 2730v455h152v152h151v152h152v151h455v-151h152v-152h152v-152h151v-455h-455
v152h-151v152h-152v-152h-152v-152h-455z" />
    <glyph glyph-name="udieresis" unicode="&#xfc;" 
d="M758 0v151h-152v152h-151v152h-152v1820h455v-1517h152v-152h151v-151h304v151h152v152h151v152h152v151h152v152h151v1062h455v-2275h-455v455h-151v-152h-152v-152h-152v-151h-910zM758 2730v455h455v-455h-455zM1668 2730v455h455v-455h-455z" />
    <glyph glyph-name="yacute" unicode="&#xfd;" 
d="M758 -910v455h1062v152h152v152h151v606h-1365v151h-152v152h-151v152h-152v1365h455v-1062h152v-152h151v-151h1062v1365h455v-2730h-151v-151h-152v-152h-152v-152h-1365zM1213 2730v455h152v152h152v152h151v151h455v-455h-151v-151h-152v-152h-152v-152h-455z" />
    <glyph glyph-name="thorn" unicode="&#xfe;" 
d="M1820 455v151h152v152h151v759h-151v151h-152v152h-1062v-1365h1062zM303 -910v4095h455v-910h1365v-152h152v-151h152v-152h151v-1365h-151v-152h-152v-152h-152v-151h-1365v-910h-455z" />
    <glyph glyph-name="ydieresis" unicode="&#xff;" 
d="M758 -910v455h1062v152h152v152h151v606h-1365v151h-152v152h-151v152h-152v1365h455v-1062h152v-152h151v-151h1062v1365h455v-2730h-151v-151h-152v-152h-152v-152h-1365zM758 2730v455h455v-455h-455zM1668 2730v455h455v-455h-455z" />
    <glyph glyph-name="Ydieresis" unicode="&#x178;" 
d="M1213 0v1517h-152v151h-151v152h-152v152h-152v151h-151v152h-152v910h455v-607h152v-151h151v-152h152v-152h152v-151h152v151h151v152h152v152h152v151h151v607h455v-910h-151v-152h-152v-151h-152v-152h-151v-152h-152v-151h-152v-1517h-455zM758 3640v456h455v-456
h-455zM1668 3640v456h455v-456h-455z" />
    <glyph glyph-name="uni0401" unicode="&#x401;" 
d="M758 0v151h-152v152h-151v152h-152v2275h152v152h151v152h152v151h1820v-455h-1517v-152h-151v-151h-152v-607h1365v-455h-1365v-607h152v-152h151v-151h1517v-455h-1820zM758 3640v456h455v-456h-455zM1820 3640v456h455v-456h-455z" />
    <glyph glyph-name="uni0404" unicode="&#x404;" 
d="M758 0v151h-152v152h-151v152h-152v2275h152v152h151v152h152v151h1365v-151h152v-152h152v-152h151v-455h-455v152h-151v151h-152v152h-759v-152h-151v-151h-152v-607h910v-455h-910v-607h152v-152h151v-151h759v151h152v152h151v152h455v-455h-151v-152h-152v-152h-152
v-151h-1365z" />
    <glyph glyph-name="uni0406" unicode="&#x406;" 
d="M303 0v455h910v2275h-910v455h2275v-455h-910v-2275h910v-455h-2275z" />
    <glyph glyph-name="uni0407" unicode="&#x407;" 
d="M303 0v455h910v2275h-910v455h2275v-455h-910v-2275h910v-455h-2275zM758 3640v456h455v-456h-455zM1668 3640v456h455v-456h-455z" />
    <glyph glyph-name="uni0410" unicode="&#x410;" 
d="M2123 1820v607h-151v151h-152v152h-759v-152h-151v-151h-152v-607h1365zM303 0v2730h152v152h151v152h152v151h1365v-151h152v-152h152v-152h151v-2730h-455v1365h-1365v-1365h-455z" />
    <glyph glyph-name="uni0411" unicode="&#x411;" 
d="M1820 455v151h152v152h151v303h-151v152h-152v152h-1062v-910h1062zM303 0v3185h1820v-455h-1365v-910h1365v-152h152v-151h152v-152h151v-910h-151v-152h-152v-152h-152v-151h-1820z" />
    <glyph glyph-name="uni0412" unicode="&#x412;" 
d="M1820 455v151h152v152h151v303h-151v152h-152v152h-1062v-910h1062zM1820 1820v152h152v151h151v304h-151v151h-152v152h-1062v-910h1062zM303 0v3185h1820v-151h152v-152h152v-152h151v-910h-151v-152h-152v-151h152v-152h151v-910h-151v-152h-152v-152h-152v-151h-1820
z" />
    <glyph glyph-name="uni0413" unicode="&#x413;" horiz-adv-x="2275" 
d="M303 0v3185h1820v-455h-1365v-2730h-455z" />
    <glyph glyph-name="uni0414" unicode="&#x414;" horiz-adv-x="3185" 
d="M2123 455v2275h-455v-910h-151v-152h-152v-151h-152v-1062h910zM303 -455v910h455v1365h152v152h151v151h152v1062h1365v-2730h456v-910h-456v455h-1820v-455h-455z" />
    <glyph glyph-name="uni0415" unicode="&#x415;" 
d="M758 0v151h-152v152h-151v152h-152v2275h152v152h151v152h152v151h1820v-455h-1517v-152h-151v-151h-152v-607h1365v-455h-1365v-607h152v-152h151v-151h1517v-455h-1820z" />
    <glyph glyph-name="uni0416" unicode="&#x416;" horiz-adv-x="3640" 
d="M303 0v910h152v151h151v152h152v152h152v152h151v151h-151v152h-152v152h-152v151h-151v152h-152v910h455v-607h152v-151h151v-152h152v-152h152v-151h152v-152h151v1365h455v-1365h152v152h152v151h151v152h152v152h152v151h152v607h455v-910h-152v-152h-152v-151h-151
v-152h-152v-152h-152v-151h152v-152h152v-152h151v-152h152v-151h152v-910h-455v606h-152v152h-152v152h-152v151h-151v152h-152v152h-152v-1365h-455v1365h-151v-152h-152v-152h-152v-151h-152v-152h-151v-152h-152v-606h-455z" />
    <glyph glyph-name="uni0417" unicode="&#x417;" 
d="M758 0v151h-152v152h-151v152h-152v455h455v-152h152v-152h151v-151h759v151h152v152h151v303h-151v152h-152v152h-607v455h607v152h152v151h151v304h-151v151h-152v152h-759v-152h-151v-151h-152v-152h-455v455h152v152h151v152h152v151h1365v-151h152v-152h152v-152
h151v-910h-151v-152h-152v-151h152v-152h151v-910h-151v-152h-152v-152h-152v-151h-1365z" />
    <glyph glyph-name="uni0418" unicode="&#x418;" 
d="M303 0v3185h455v-1365h152v152h151v151h152v152h152v152h152v151h151v152h152v152h152v152h151v151h455v-3185h-455v2275h-151v-152h-152v-151h-152v-152h-151v-152h-152v-151h-152v-152h-152v-152h-151v-152h-152v-1061h-455z" />
    <glyph glyph-name="uni0419" unicode="&#x419;" 
d="M303 0v3185h455v-1365h152v152h151v151h152v152h152v152h152v151h151v152h152v152h152v152h151v151h455v-3185h-455v2275h-151v-152h-152v-151h-152v-152h-151v-152h-152v-151h-152v-152h-152v-152h-151v-152h-152v-1061h-455zM1061 3640v152h-151v152h-152v152h-152v455
h455v-152h152v-152h152v-151h303v151h152v152h152v152h455v-455h-152v-152h-152v-152h-151v-152h-911z" />
    <glyph glyph-name="uni041A" unicode="&#x41a;" 
d="M303 0v3185h455v-1365h152v152h151v151h152v152h152v152h152v151h151v152h152v152h152v152h151v151h455v-455h-151v-152h-152v-151h-152v-152h-151v-152h-152v-151h-152v-152h-151v-152h-152v-151h152v-152h151v-152h152v-152h152v-151h151v-152h152v-152h152v-151h151
v-455h-455v151h-151v152h-152v152h-152v151h-151v152h-152v152h-152v151h-152v152h-151v152h-152v-1365h-455z" />
    <glyph glyph-name="uni041B" unicode="&#x41b;" 
d="M303 0v455h152v151h151v152h152v2427h1820v-3185h-455v2730h-910v-2275h-152v-152h-151v-152h-152v-151h-455z" />
    <glyph glyph-name="uni041C" unicode="&#x41c;" 
d="M303 0v3185h455v-151h152v-152h151v-152h152v-152h152v-151h152v151h151v152h152v152h152v152h151v151h455v-3185h-455v2275h-151v-152h-152v-151h-152v-152h-455v152h-152v151h-151v152h-152v-2275h-455z" />
    <glyph glyph-name="uni041D" unicode="&#x41d;" 
d="M303 0v3185h455v-1365h1365v1365h455v-3185h-455v1365h-1365v-1365h-455z" />
    <glyph glyph-name="uni041E" unicode="&#x41e;" 
d="M1820 455v151h152v152h151v1669h-151v151h-152v152h-759v-152h-151v-151h-152v-1669h152v-152h151v-151h759zM758 0v151h-152v152h-151v152h-152v2275h152v152h151v152h152v151h1365v-151h152v-152h152v-152h151v-2275h-151v-152h-152v-152h-152v-151h-1365z" />
    <glyph glyph-name="uni041F" unicode="&#x41f;" 
d="M303 0v3185h2275v-3185h-455v2730h-1365v-2730h-455z" />
    <glyph glyph-name="uni0420" unicode="&#x420;" 
d="M1820 1820v152h152v151h151v304h-151v151h-152v152h-1062v-910h1062zM303 0v3185h1820v-151h152v-152h152v-152h151v-910h-151v-152h-152v-151h-152v-152h-1365v-1365h-455z" />
    <glyph glyph-name="uni0421" unicode="&#x421;" 
d="M758 0v151h-152v152h-151v152h-152v2275h152v152h151v152h152v151h1365v-151h152v-152h152v-152h151v-455h-455v152h-151v151h-152v152h-759v-152h-151v-151h-152v-1669h152v-152h151v-151h759v151h152v152h151v152h455v-455h-151v-152h-152v-152h-152v-151h-1365z" />
    <glyph glyph-name="uni0422" unicode="&#x422;" 
d="M1213 0v2730h-910v455h2275v-455h-910v-2730h-455z" />
    <glyph glyph-name="uni0423" unicode="&#x423;" 
d="M303 0v455h1517v151h152v152h151v607h-1365v152h-152v151h-151v152h-152v1365h455v-1062h152v-151h151v-152h1062v1365h455v-2730h-151v-152h-152v-152h-152v-151h-1820z" />
    <glyph glyph-name="uni0424" unicode="&#x424;" horiz-adv-x="3640" 
d="M1668 910v1365h-607v-152h-151v-151h-152v-759h152v-152h151v-151h607zM2730 910v151h152v152h152v759h-152v151h-152v152h-607v-1365h607zM1668 0v455h-910v151h-152v152h-151v152h-152v1365h152v152h151v151h152v152h910v455h455v-455h911v-152h151v-151h152v-152h152
v-1365h-152v-152h-152v-152h-151v-151h-911v-455h-455z" />
    <glyph glyph-name="uni0425" unicode="&#x425;" 
d="M303 0v1365h152v152h151v151h152v152h152v152h151v151h-151v152h-152v152h-152v151h-151v152h-152v455h455v-151h152v-152h151v-152h152v-152h152v-151h152v151h151v152h152v152h152v152h151v151h455v-455h-151v-152h-152v-151h-152v-152h-151v-152h-152v-151h152v-152
h151v-152h152v-151h152v-152h151v-1365h-455v1061h-151v152h-152v152h-152v152h-151v151h-152v-151h-152v-152h-152v-152h-151v-152h-152v-1061h-455z" />
    <glyph glyph-name="uni0426" unicode="&#x426;" horiz-adv-x="3185" 
d="M2578 -455v455h-2275v3185h455v-2730h1365v2730h455v-2730h456v-910h-456z" />
    <glyph glyph-name="uni0427" unicode="&#x427;" 
d="M2123 0v1365h-1365v152h-152v151h-151v152h-152v1365h455v-1062h152v-151h151v-152h1062v1365h455v-3185h-455z" />
    <glyph glyph-name="uni0428" unicode="&#x428;" horiz-adv-x="3337" 
d="M303 0v3185h455v-2730h759v2730h455v-2730h758v2730h455v-3185h-2882z" />
    <glyph glyph-name="uni0429" unicode="&#x429;" horiz-adv-x="3792" 
d="M3185 -455v455h-2882v3185h455v-2730h759v2730h455v-2730h758v2730h455v-2730h455v-910h-455z" />
    <glyph glyph-name="uni042A" unicode="&#x42a;" horiz-adv-x="3185" 
d="M2275 455v151h152v152h151v303h-151v152h-152v152h-1062v-910h1062zM758 0v2730h-455v455h910v-1365h1365v-152h152v-151h152v-152h152v-910h-152v-152h-152v-152h-152v-151h-1820z" />
    <glyph glyph-name="uni042B" unicode="&#x42b;" horiz-adv-x="3640" 
d="M1820 455v151h152v152h151v303h-151v152h-152v152h-1062v-910h1062zM303 0v3185h455v-1365h1365v-152h152v-151h152v-152h151v-910h-151v-152h-152v-152h-152v-151h-1820zM3034 0v3185h455v-3185h-455z" />
    <glyph glyph-name="uni042C" unicode="&#x42c;" 
d="M1820 455v151h152v152h151v303h-151v152h-152v152h-1062v-910h1062zM303 0v3185h455v-1365h1365v-152h152v-151h152v-152h151v-910h-151v-152h-152v-152h-152v-151h-1820z" />
    <glyph glyph-name="uni042D" unicode="&#x42d;" 
d="M758 0v151h-152v152h-151v152h-152v455h455v-152h152v-152h151v-151h759v151h152v152h151v607h-910v455h910v607h-151v151h-152v152h-759v-152h-151v-151h-152v-152h-455v455h152v152h151v152h152v151h1365v-151h152v-152h152v-152h151v-2275h-151v-152h-152v-152h-152
v-151h-1365z" />
    <glyph glyph-name="uni042E" unicode="&#x42e;" horiz-adv-x="3640" 
d="M2730 455v151h152v152h152v1669h-152v151h-152v152h-758v-152h-152v-151h-152v-1669h152v-152h152v-151h758zM303 0v3185h455v-1365h455v910h152v152h152v152h151v151h1366v-151h151v-152h152v-152h152v-2275h-152v-152h-152v-152h-151v-151h-1366v151h-151v152h-152v152
h-152v910h-455v-1365h-455z" />
    <glyph glyph-name="uni042F" unicode="&#x42f;" 
d="M2123 1820v910h-1062v-152h-151v-151h-152v-304h152v-151h151v-152h1062zM303 0v455h152v151h151v152h152v152h152v151h151v152h152v152h-455v152h-152v151h-151v152h-152v910h152v152h151v152h152v151h1820v-3185h-455v1365h-151v-152h-152v-152h-152v-151h-151v-152
h-152v-152h-152v-151h-152v-152h-151v-152h-152v-151h-455z" />
    <glyph glyph-name="uni0430" unicode="&#x430;" 
d="M2123 455v455h-1062v-152h-151v-152h151v-151h1062zM758 0v151h-152v152h-151v152h-152v455h152v151h151v152h152v152h1365v152h-151v151h-152v152h-1062v455h1365v-152h152v-151h152v-152h151v-1820h-1820z" />
    <glyph glyph-name="uni0431" unicode="&#x431;" 
d="M1820 455v151h152v152h151v759h-151v151h-152v152h-1062v-1062h152v-152h151v-151h759zM758 0v151h-152v152h-151v152h-152v2730h152v152h151v152h152v151h1365v-455h-1062v-151h-151v-152h-152v-607h1365v-152h152v-151h152v-152h151v-1365h-151v-152h-152v-152h-152
v-151h-1365z" />
    <glyph glyph-name="uni0432" unicode="&#x432;" 
d="M1820 455v151h152v152h-152v152h-1062v-455h1062zM1820 1365v152h152v151h-152v152h-1062v-455h1062zM303 0v2275h1820v-152h152v-151h152v-152h151v-455h-151v-152h-152v-152h152v-151h151v-455h-151v-152h-152v-152h-152v-151h-1820z" />
    <glyph glyph-name="uni0433" unicode="&#x433;" horiz-adv-x="2275" 
d="M303 0v2275h1820v-455h-1365v-1820h-455z" />
    <glyph glyph-name="uni0434" unicode="&#x434;" horiz-adv-x="3185" 
d="M2123 455v1365h-455v-455h-151v-152h-152v-152h-152v-606h910zM303 -455v910h455v910h152v152h151v151h152v607h1365v-1820h456v-910h-456v455h-1820v-455h-455z" />
    <glyph glyph-name="uni0435" unicode="&#x435;" 
d="M2123 1365v152h-151v151h-152v152h-759v-152h-151v-151h-152v-152h1365zM758 0v151h-152v152h-151v152h-152v1365h152v152h151v151h152v152h1365v-152h152v-151h152v-152h151v-910h-1820v-152h152v-152h151v-151h1517v-455h-1820z" />
    <glyph glyph-name="uni0436" unicode="&#x436;" 
d="M303 0v910h152v151h151v152h-151v152h-152v910h455v-607h152v-151h151v-152h152v910h455v-910h152v152h152v151h151v607h455v-910h-151v-152h-152v-152h152v-151h151v-910h-455v606h-151v152h-152v152h-152v-910h-455v910h-152v-152h-151v-152h-152v-606h-455z" />
    <glyph glyph-name="uni0437" unicode="&#x437;" 
d="M758 0v151h-152v152h-151v152h-152v455h455v-152h152v-152h151v-151h759v151h152v152h-152v152h-607v455h607v152h152v151h-152v152h-759v-152h-151v-151h-152v-152h-455v455h152v152h151v151h152v152h1365v-152h152v-151h152v-152h151v-455h-151v-152h-152v-152h152
v-151h151v-455h-151v-152h-152v-152h-152v-151h-1365z" />
    <glyph glyph-name="uni0438" unicode="&#x438;" 
d="M303 0v2275h455v-1365h152v151h151v152h152v152h152v152h152v151h151v152h152v152h152v151h151v152h455v-2275h-455v1365h-151v-152h-152v-152h-152v-151h-151v-152h-152v-152h-152v-151h-152v-152h-151v-152h-152v-151h-455z" />
    <glyph glyph-name="uni0439" unicode="&#x439;" 
d="M303 0v2275h455v-1365h152v151h151v152h152v152h152v152h152v151h151v152h152v152h152v151h151v152h455v-2275h-455v1365h-151v-152h-152v-152h-152v-151h-151v-152h-152v-152h-152v-151h-152v-152h-151v-152h-152v-151h-455zM1061 2730v152h-151v152h-152v151h-152v455
h455v-151h152v-152h152v-152h303v152h152v152h152v151h455v-455h-152v-151h-152v-152h-151v-152h-911z" />
    <glyph glyph-name="uni043A" unicode="&#x43a;" horiz-adv-x="2275" 
d="M303 0v2275h455v-910h152v152h151v151h152v152h152v152h152v151h151v152h455v-455h-151v-152h-152v-151h-152v-152h-151v-152h-152v-152h152v-151h151v-152h152v-152h152v-151h151v-455h-455v151h-151v152h-152v152h-152v151h-152v152h-151v152h-152v-910h-455z" />
    <glyph glyph-name="uni043B" unicode="&#x43b;" 
d="M303 0v455h152v151h151v152h152v1517h1820v-2275h-455v1820h-910v-1365h-152v-152h-151v-152h-152v-151h-455z" />
    <glyph glyph-name="uni043C" unicode="&#x43c;" 
d="M303 0v2275h455v-152h152v-151h151v-152h152v-152h152v-151h152v151h151v152h152v152h152v151h151v152h455v-2275h-455v1365h-151v-152h-152v-152h-152v-151h-455v151h-152v152h-151v152h-152v-1365h-455z" />
    <glyph glyph-name="uni043D" unicode="&#x43d;" 
d="M303 0v2275h455v-910h1365v910h455v-2275h-455v910h-1365v-910h-455z" />
    <glyph glyph-name="uni043E" unicode="&#x43e;" 
d="M1820 455v151h152v152h151v759h-151v151h-152v152h-759v-152h-151v-151h-152v-759h152v-152h151v-151h759zM758 0v151h-152v152h-151v152h-152v1365h152v152h151v151h152v152h1365v-152h152v-151h152v-152h151v-1365h-151v-152h-152v-152h-152v-151h-1365z" />
    <glyph glyph-name="uni043F" unicode="&#x43f;" 
d="M303 0v2275h2275v-2275h-455v1820h-1365v-1820h-455z" />
    <glyph glyph-name="uni0440" unicode="&#x440;" 
d="M1820 455v151h152v152h151v759h-151v151h-152v152h-303v-152h-152v-151h-152v-152h-152v-152h-151v-152h-152v-606h1062zM303 -910v3185h455v-455h152v152h151v151h152v152h910v-152h152v-151h152v-152h151v-1365h-151v-152h-152v-152h-152v-151h-1365v-910h-455z" />
    <glyph glyph-name="uni0441" unicode="&#x441;" 
d="M758 0v151h-152v152h-151v152h-152v1365h152v152h151v151h152v152h1365v-152h152v-151h152v-152h151v-455h-455v152h-151v151h-152v152h-759v-152h-151v-151h-152v-759h152v-152h151v-151h759v151h152v152h151v152h455v-455h-151v-152h-152v-152h-152v-151h-1365z" />
    <glyph glyph-name="uni0442" unicode="&#x442;" 
d="M1213 0v1820h-910v455h2275v-455h-910v-1820h-455z" />
    <glyph glyph-name="uni0443" unicode="&#x443;" 
d="M758 -910v455h1062v152h152v152h151v606h-1365v151h-152v152h-151v152h-152v1365h455v-1062h152v-152h151v-151h1062v1365h455v-2730h-151v-151h-152v-152h-152v-152h-1365z" />
    <glyph glyph-name="uni0444" unicode="&#x444;" horiz-adv-x="3640" 
d="M1668 455v1365h-607v-152h-151v-151h-152v-759h152v-152h151v-151h607zM2730 455v151h152v152h152v759h-152v151h-152v152h-607v-1365h607zM1668 -910v910h-910v151h-152v152h-151v152h-152v1365h152v152h151v151h152v152h910v910h455v-910h911v-152h151v-151h152v-152
h152v-1365h-152v-152h-152v-152h-151v-151h-911v-910h-455z" />
    <glyph glyph-name="uni0445" unicode="&#x445;" 
d="M303 0v455h152v151h151v152h152v152h152v151h151v152h-151v152h-152v152h-152v151h-151v152h-152v455h455v-152h152v-151h151v-152h152v-152h152v-151h152v151h151v152h152v152h152v151h151v152h455v-455h-151v-152h-152v-151h-152v-152h-151v-152h-152v-152h152v-151
h151v-152h152v-152h152v-151h151v-455h-455v151h-151v152h-152v152h-152v151h-151v152h-152v-152h-152v-151h-152v-152h-151v-152h-152v-151h-455z" />
    <glyph glyph-name="uni0446" unicode="&#x446;" horiz-adv-x="3185" 
d="M2578 -455v455h-2275v2275h455v-1820h1365v1820h455v-1820h456v-910h-456z" />
    <glyph glyph-name="uni0447" unicode="&#x447;" 
d="M2123 0v910h-1365v151h-152v152h-151v152h-152v910h455v-607h152v-151h151v-152h1062v910h455v-2275h-455z" />
    <glyph glyph-name="uni0448" unicode="&#x448;" 
d="M303 0v2275h455v-1820h455v1820h455v-1820h455v1820h455v-2275h-2275z" />
    <glyph glyph-name="uni0449" unicode="&#x449;" horiz-adv-x="3185" 
d="M2578 -455v455h-2275v2275h455v-1820h455v1820h455v-1820h455v1820h455v-1820h456v-910h-456z" />
    <glyph glyph-name="uni044A" unicode="&#x44a;" horiz-adv-x="3185" 
d="M2275 455v151h152v152h-152v152h-1062v-455h1062zM758 0v1820h-455v455h910v-910h1365v-152h152v-152h152v-151h152v-455h-152v-152h-152v-152h-152v-151h-1820z" />
    <glyph glyph-name="uni044B" unicode="&#x44b;" horiz-adv-x="3185" 
d="M1365 455v151h152v152h-152v152h-607v-455h607zM303 0v2275h455v-910h910v-152h152v-152h152v-151h151v-455h-151v-152h-152v-152h-152v-151h-1365zM2578 0v2275h456v-2275h-456z" />
    <glyph glyph-name="uni044C" unicode="&#x44c;" 
d="M1820 455v151h152v152h-152v152h-1062v-455h1062zM303 0v2275h455v-910h1365v-152h152v-152h152v-151h151v-455h-151v-152h-152v-152h-152v-151h-1820z" />
    <glyph glyph-name="uni044D" unicode="&#x44d;" 
d="M758 0v151h-152v152h-151v152h-152v455h455v-152h152v-152h151v-151h759v151h152v152h151v152h-910v455h910v152h-151v151h-152v152h-759v-152h-151v-151h-152v-152h-455v455h152v152h151v151h152v152h1365v-152h152v-151h152v-152h151v-1365h-151v-152h-152v-152h-152
v-151h-1365z" />
    <glyph glyph-name="uni044E" unicode="&#x44e;" horiz-adv-x="3640" 
d="M2730 455v151h152v152h152v759h-152v151h-152v152h-758v-152h-152v-151h-152v-759h152v-152h152v-151h758zM303 0v2275h455v-910h455v455h152v152h152v151h151v152h1366v-152h151v-151h152v-152h152v-1365h-152v-152h-152v-152h-151v-151h-1366v151h-151v152h-152v152
h-152v455h-455v-910h-455z" />
    <glyph glyph-name="uni044F" unicode="&#x44f;" 
d="M2123 1365v455h-1062v-152h-151v-151h151v-152h1062zM303 0v455h152v151h151v152h152v303h-152v152h-151v152h-152v455h152v152h151v151h152v152h1820v-2275h-455v910h-606v-152h-152v-152h-152v-151h-152v-152h-151v-152h-152v-151h-455z" />
    <glyph glyph-name="uni0451" unicode="&#x451;" 
d="M2123 1365v152h-151v151h-152v152h-759v-152h-151v-151h-152v-152h1365zM758 0v151h-152v152h-151v152h-152v1365h152v152h151v151h152v152h1365v-152h152v-151h152v-152h151v-910h-1820v-152h152v-152h151v-151h1517v-455h-1820zM758 2730v455h455v-455h-455zM1668 2730
v455h455v-455h-455z" />
    <glyph glyph-name="uni0490" unicode="&#x490;" horiz-adv-x="2275" 
d="M303 0v3185h1365v455h455v-910h-1365v-2730h-455z" />
    <glyph glyph-name="uni0491" unicode="&#x491;" horiz-adv-x="2275" 
d="M303 0v2275h1365v455h455v-910h-1365v-1820h-455z" />
    <glyph glyph-name="quoteleft" unicode="&#x2018;" horiz-adv-x="1365" 
d="M303 1820v910h152v152h151v152h152v151h455v-455h-152v-152h-151v-151h-152v-607h-455z" />
    <glyph glyph-name="quoteright" unicode="&#x2019;" horiz-adv-x="910" 
d="M-151 1820v455h151v152h151v151h152v607h455v-910h-152v-152h-151v-151h-152v-152h-454z" />
    <glyph glyph-name="quotedblleft" unicode="&#x201c;" horiz-adv-x="2275" 
d="M303 1820v910h152v152h151v152h152v151h455v-455h-152v-152h-151v-151h-152v-607h-455zM1213 1820v910h152v152h152v152h151v151h455v-455h-151v-152h-152v-151h-152v-607h-455z" />
    <glyph glyph-name="quotedblright" unicode="&#x201d;" horiz-adv-x="1820" 
d="M-151 1820v455h151v152h151v151h152v607h455v-910h-152v-152h-151v-151h-152v-152h-454zM758 1820v455h152v152h151v151h152v607h455v-910h-151v-152h-152v-151h-152v-152h-455z" />
    <glyph glyph-name="Euro" unicode="&#x20ac;" horiz-adv-x="3185" 
d="M1213 0v151h-152v152h-151v152h-152v455h-303v151h-152v304h455v455h-303v152h-152v303h455v455h152v152h151v152h152v151h1365v-151h152v-152h152v-152h152v-455h-456v152h-151v151h-152v152h-758v-152h-152v-151h-152v-152h759v-152h151v-303h-910v-455h759v-152h151
v-303h-910v-152h152v-152h152v-151h758v151h152v152h151v152h456v-455h-152v-152h-152v-152h-152v-151h-1365z" />
    <glyph glyph-name="trademark" unicode="&#x2122;" horiz-adv-x="4096" 
d="M758 1365v1365h-455v455h1820v-151h152v-152h152v-152h151v-152h152v-151h152v151h152v152h151v152h152v152h152v151h455v-1820h-455v910h-152v-152h-152v-151h-151v-152h-456v152h-151v151h-152v152h-152v-910h-455v1365h-455v-1365h-455z" />
  </font>
</defs>
</svg>
